<?xml version="1.0" encoding="UTF-8"?>
<svg version="1.1" xmlns="http://www.w3.org/2000/svg" width="284" height="301">
<path d="M0 0 C93.72 0 187.44 0 284 0 C284 99.33 284 198.66 284 301 C190.28 301 96.56 301 0 301 C0 201.67 0 102.34 0 0 Z " fill="#CBCBCA" transform="translate(0,0)"/>
<path d="M0 0 C1.12178787 3.3653636 1.16771159 6.0203755 1.1875 9.5625 C1.20167969 10.71878906 1.21585938 11.87507812 1.23046875 13.06640625 C1 16 1 16 -1 18 C-3.3828125 18.4140625 -3.3828125 18.4140625 -6.125 18.625 C-7.03507813 18.69976562 -7.94515625 18.77453125 -8.8828125 18.8515625 C-9.93082031 18.92503906 -9.93082031 18.92503906 -11 19 C-10.84180786 19.99290039 -10.84180786 19.99290039 -10.68041992 21.00585938 C-8.77134737 33.04658606 -6.92177764 45.08616527 -5.4375 57.1875 C-5.31785889 58.16025879 -5.19821777 59.13301758 -5.07495117 60.13525391 C-4.58690108 64.1289926 -4.10418106 68.1233143 -3.62939453 72.11865234 C-3.26067058 75.20509718 -2.88101554 78.29005169 -2.5 81.375 C-2.39357178 82.29563232 -2.28714355 83.21626465 -2.17749023 84.16479492 C-1.50126951 89.57703405 -0.33725859 94.56337892 1.31787109 99.75878906 C2.16519103 102.54275365 2.65351317 105.30870919 3.0625 108.1875 C3.56431836 111.52586789 4.13177554 114.40226219 5.1875 117.625 C6.29863775 122.24049525 5.69291168 126.34625533 5 131 C5.33 131 5.66 131 6 131 C6.13277344 131.84304688 6.26554688 132.68609375 6.40234375 133.5546875 C6.66724609 135.19824219 6.66724609 135.19824219 6.9375 136.875 C7.11152344 137.96554687 7.28554687 139.05609375 7.46484375 140.1796875 C7.85551159 142.93821546 7.85551159 142.93821546 9 145 C9 146.98 9 148.96 9 151 C-62.28 151 -133.56 151 -207 151 C-207 135.16 -207 119.32 -207 103 C-157.10250569 102.85193622 -157.10250569 102.85193622 -139 104 C-138.15672251 95.64251778 -137.87809322 87.39802254 -138 79 C-137.34 79 -136.68 79 -136 79 C-135.9373999 77.75210693 -135.9373999 77.75210693 -135.87353516 76.47900391 C-135.42939708 68.78785763 -134.72171722 61.16925397 -133.7734375 53.5234375 C-133.6610675 52.61636047 -133.54869751 51.70928345 -133.43292236 50.77471924 C-132.96340535 47.01486665 -132.48799767 43.25581386 -132.00585938 39.49755859 C-131.65066159 36.71533427 -131.3052116 33.93203149 -130.9609375 31.1484375 C-130.84954437 30.30260101 -130.73815125 29.45676453 -130.62338257 28.58529663 C-130.117432 24.45176403 -129.88715309 21.07709248 -131 17 C-131.0885819 15.35602411 -131.13020175 13.70885246 -131.125 12.0625 C-131.12886719 10.84240234 -131.12886719 10.84240234 -131.1328125 9.59765625 C-130.9834092 6.67550341 -130.52745672 3.87589499 -130 1 C-119.32480925 1.56885937 -108.66038445 2.19447256 -98 3 C-98 3.33 -98 3.66 -98 4 C-99.11375 4.12375 -100.2275 4.2475 -101.375 4.375 C-105.03103677 4.6465813 -105.03103677 4.6465813 -107 7 C-107.4443751 8.96164001 -107.4443751 8.96164001 -107.59765625 11.2109375 C-107.67693359 12.04367188 -107.75621094 12.87640625 -107.83789062 13.734375 C-107.91201172 14.60578125 -107.98613281 15.4771875 -108.0625 16.375 C-108.2174865 18.09137943 -108.37495259 19.80753716 -108.53515625 21.5234375 C-108.600979 22.28575684 -108.66680176 23.04807617 -108.73461914 23.83349609 C-108.9945417 25.95543975 -109.43603748 27.94003117 -110 30 C-88.95501335 30.18326958 -68.08169717 29.7443202 -47.125 27.6875 C-45.96645508 27.58203857 -44.80791016 27.47657715 -43.61425781 27.36791992 C-36.70379994 26.63455085 -30.09894602 25.5190996 -24 22 C-21.68409711 18.52614567 -21.73008165 17.03569994 -21.75 12.9375 C-21.74484375 11.87402344 -21.7396875 10.81054688 -21.734375 9.71484375 C-21.72442865 6.85231097 -21.72442865 6.85231097 -24 5 C-26.43176397 4.75498505 -28.75864884 4.62675079 -31.1953125 4.5859375 C-31.90275604 4.56657135 -32.61019958 4.5472052 -33.33908081 4.5272522 C-35.60093085 4.46742348 -37.8628317 4.42105899 -40.125 4.375 C-41.6575744 4.33682314 -43.19012728 4.29777158 -44.72265625 4.2578125 C-48.48159624 4.16171961 -52.24063668 4.07770151 -56 4 C-56 3.67 -56 3.34 -56 3 C-55.2879541 2.98018066 -54.5759082 2.96036133 -53.84228516 2.93994141 C-37.23815535 2.45931651 -20.72001337 1.59061843 -4.16943359 0.16772461 C-2 0 -2 0 0 0 Z " fill="#807F7E" transform="translate(207,150)"/>
<path d="M0 0 C3.63 0.66 7.26 1.32 11 2 C10.50994689 12.46802978 9.4876925 22.7433248 7.95889282 33.10913086 C7.38164421 37.02646518 6.82523624 40.94674748 6.26953125 44.8671875 C6.15894882 45.64555969 6.04836639 46.42393188 5.93443298 47.22589111 C4.79671372 55.30960473 3.85636748 63.41159881 2.98876953 71.52880859 C2.44818373 76.49865594 1.78670973 81.40909791 0.93359375 86.3359375 C0.25362629 90.29433097 -0.27404928 94.09674625 -0.25 98.125 C-0.25515625 99.01445312 -0.2603125 99.90390625 -0.265625 100.8203125 C-0.20175376 103.20916364 -0.20175376 103.20916364 2 105 C1.67 105.66 1.34 106.32 1 107 C6.94 107.66 12.88 108.32 19 109 C19 109.66 19 110.32 19 111 C19.66 111 20.32 111 21 111 C21 110.34 21 109.68 21 109 C22.03125 109.20625 23.0625 109.4125 24.125 109.625 C27.8647873 110.26246485 27.8647873 110.26246485 30.70800781 109.04223633 C34.75999209 107.75938844 38.32654389 107.694216 42.546875 107.69921875 C43.76373993 107.69279106 43.76373993 107.69279106 45.00518799 107.68623352 C46.71633984 107.6805116 48.427516 107.67997414 50.13867188 107.68432617 C52.72829787 107.68747362 55.31676597 107.66404448 57.90625 107.63867188 C68.53153432 107.59817434 77.86959305 107.91306203 87 114 C87.99 114.33 88.98 114.66 90 115 C90 115.66 90 116.32 90 117 C92.97 117.495 92.97 117.495 96 118 C96 118.66 96 119.32 96 120 C96.58007812 120.19335938 97.16015625 120.38671875 97.7578125 120.5859375 C102.171875 122.05729167 106.5859375 123.52864583 111 125 C111 125.66 111 126.32 111 127 C112.32 127.33 113.64 127.66 115 128 C115.33 126.68 115.66 125.36 116 124 C115.01 123.34 114.02 122.68 113 122 C114.65 122 116.3 122 118 122 C118 122.99 118 123.98 118 125 C124.59825904 127.07007088 124.59825904 127.07007088 131 125 C132.32 125 133.64 125 135 125 C135.33 127.64 135.66 130.28 136 133 C65.38 133 -5.24 133 -78 133 C-78 117.16 -78 101.32 -78 85 C-28.10250569 84.85193622 -28.10250569 84.85193622 -10 86 C-9.15672251 77.64251778 -8.87809322 69.39802254 -9 61 C-8.34 61 -7.68 61 -7 61 C-6.93522461 59.75319458 -6.93522461 59.75319458 -6.86914062 58.48120117 C-6.2527899 47.98415454 -5.1102514 37.58055814 -3.84326172 27.14379883 C-3.49598507 24.27938398 -3.15579872 21.41418679 -2.81640625 18.54882812 C-2.59676589 16.71609644 -2.37672873 14.88341226 -2.15625 13.05078125 C-2.05517944 12.19978348 -1.95410889 11.34878571 -1.84997559 10.47200012 C-1.75317505 9.67984604 -1.65637451 8.88769196 -1.55664062 8.0715332 C-1.47305298 7.37953323 -1.38946533 6.68753326 -1.30334473 5.9745636 C-0.99383068 3.95984202 -0.49437435 1.9774974 0 0 Z " fill="#9B9A99" transform="translate(78,168)"/>
<path d="M0 0 C1.00809723 0.06521347 1.00809723 0.06521347 2.03656006 0.13174438 C13.01699956 0.85983319 13.01699956 0.85983319 16.625 2.0625 C24.26495117 15.40551332 22.74329376 32.25117877 20.453125 46.8828125 C19.36776349 49.7395659 18.27804737 50.56903286 15.625 52.0625 C-10.3347845 60.5522551 -41.92683675 57.80423693 -68.8125 56.25 C-70.11034424 56.18006836 -71.40818848 56.11013672 -72.74536133 56.03808594 C-82.13975484 55.42414523 -91.74183617 54.71502395 -98.84765625 47.91015625 C-106.46987093 38.68942084 -109.23250579 25.63858015 -108.91015625 13.921875 C-108.32519343 10.79638024 -107.73382388 9.58997064 -105.4375 7.4375 C-98.38599957 2.9773572 -90.82738734 1.57962975 -82.625 0.9375 C-81.25166504 0.82075928 -81.25166504 0.82075928 -79.85058594 0.70166016 C-77.02640499 0.47090745 -74.20154067 0.26211445 -71.375 0.0625 C-70.55515625 0.00320312 -69.7353125 -0.05609375 -68.890625 -0.1171875 C-45.98945449 -1.68883646 -22.89803631 -1.49862648 0 0 Z " fill="#B8B7B7" transform="translate(180.375,75.9375)"/>
<path d="M0 0 C2.12138162 12.18187323 3.72513834 24.41211763 5.1875 36.6875 C5.32303284 37.80557037 5.32303284 37.80557037 5.46130371 38.94622803 C5.72295136 41.1133065 5.97776902 43.28108055 6.23046875 45.44921875 C6.37895264 46.71080811 6.52743652 47.97239746 6.68041992 49.2722168 C7.01862177 53.21721601 7.05394013 57.04320408 7 61 C8.485 61.495 8.485 61.495 10 62 C9.81566406 62.78632813 9.63132813 63.57265625 9.44140625 64.3828125 C8.87562217 69.01923781 9.37769228 73.25745555 9.9375 77.875 C10.03740234 78.75414062 10.13730469 79.63328125 10.24023438 80.5390625 C10.48612825 82.69356123 10.74205565 84.84691076 11 87 C26.95210123 87.20681383 26.95210123 87.20681383 42.875 86.4375 C54.24228419 85.56866299 65.6313332 86.46709374 77 87 C77 102.51 77 118.02 77 134 C54.56 134 32.12 134 9 134 C8.01 129.05 7.02 124.1 6 119 C5.34 118.34 4.68 117.68 4 117 C4.12890625 114.05859375 4.12890625 114.05859375 4.5625 110.4375 C5.03658623 105.01307149 4.88315167 101.33967269 2.828125 96.3515625 C1.4329969 92.38992517 1.05958799 88.26478635 0.52734375 84.11328125 C0.09523451 81.02402537 0.09523451 81.02402537 -0.95678711 78.2902832 C-2.11555607 74.63553729 -2.71237684 71.02778823 -3.21875 67.2421875 C-3.37297676 66.13666283 -3.37297676 66.13666283 -3.53031921 65.00880432 C-3.85972672 62.631672 -4.18023223 60.2534466 -4.5 57.875 C-4.72426988 56.23834956 -4.94863543 54.60171223 -5.1730957 52.96508789 C-6.43368109 43.68846342 -7.56231139 34.41466289 -8.39794922 25.08886719 C-8.85804371 20.03345238 -9.62254317 15.11765693 -10.625 10.14453125 C-11.1031427 7.4101527 -11.14960867 4.76776039 -11 2 C-9.35440244 1.66550467 -7.70851502 1.33243501 -6.0625 1 C-5.14597656 0.814375 -4.22945312 0.62875 -3.28515625 0.4375 C-1 0 -1 0 0 0 Z " fill="#A8A5A2" transform="translate(207,167)"/>
<path d="M0 0 C0.33 0 0.66 0 1 0 C1.12117187 0.78503906 1.24234375 1.57007813 1.3671875 2.37890625 C2.42306966 9.08334873 2.42306966 9.08334873 4.1875 15.625 C5.29863775 20.24049525 4.69291168 24.34625533 4 29 C4.33 29 4.66 29 5 29 C5.13277344 29.84304688 5.26554688 30.68609375 5.40234375 31.5546875 C5.66724609 33.19824219 5.66724609 33.19824219 5.9375 34.875 C6.11152344 35.96554687 6.28554687 37.05609375 6.46484375 38.1796875 C6.85551159 40.93821546 6.85551159 40.93821546 8 43 C8.039992 44.99960012 8.04346799 47.00047242 8 49 C7.34 49 6.68 49 6 49 C5.67 46.36 5.34 43.72 5 41 C4.41992188 41.23976563 3.83984375 41.47953125 3.2421875 41.7265625 C-3.20489911 44.17347656 -3.20489911 44.17347656 -7.4375 43.25 C-8.96155107 42.50656045 -10.48331044 41.75834478 -12 41 C-12 40.01 -12 39.02 -12 38 C-12.99 38.495 -12.99 38.495 -14 39 C-13.67 39.66 -13.34 40.32 -13 41 C-13.66 41 -14.32 41 -15 41 C-15 41.99 -15 42.98 -15 44 C-16.98 43.505 -16.98 43.505 -19 43 C-19 42.34 -19 41.68 -19 41 C-19.804375 40.9175 -20.60875 40.835 -21.4375 40.75 C-25.95934205 39.79803325 -29.84702701 37.98419821 -34 36 C-34 35.34 -34 34.68 -34 34 C-35.98 33.67 -37.96 33.34 -40 33 C-40 32.34 -40 31.68 -40 31 C-40.9075 30.896875 -41.815 30.79375 -42.75 30.6875 C-46 30 -46 30 -47.875 28.5625 C-53.27534725 24.59165644 -60.43629908 24.70052885 -66.8828125 24.734375 C-67.70071259 24.73246155 -68.51861267 24.7305481 -69.36129761 24.72857666 C-71.07729401 24.72722479 -72.793301 24.73085092 -74.50927734 24.73925781 C-77.12490881 24.74999963 -79.73985792 24.7393144 -82.35546875 24.7265625 C-84.0312515 24.72788373 -85.70703383 24.73044537 -87.3828125 24.734375 C-88.5455217 24.72830231 -88.5455217 24.72830231 -89.73171997 24.72210693 C-94.25544 24.76093395 -97.68799779 25.5187957 -102 27 C-105.875 26.125 -105.875 26.125 -109 25 C-109 25.66 -109 26.32 -109 27 C-109.66 27 -110.32 27 -111 27 C-111 26.34 -111 25.68 -111 25 C-116.94 24.67 -122.88 24.34 -129 24 C-129.33 22.68 -129.66 21.36 -130 20 C-130.33 19.67 -130.66 19.34 -131 19 C-131.07226502 17.14712498 -131.0838122 15.29166122 -131.0625 13.4375 C-131.05347656 12.42558594 -131.04445313 11.41367187 -131.03515625 10.37109375 C-131.02355469 9.58863281 -131.01195312 8.80617188 -131 8 C-130.01 9.485 -130.01 9.485 -129 11 C-124.75837455 11.68297359 -122.38657184 10.34448476 -118.875 8.0625 C-116.18517424 6.3333263 -114.04442937 5.01480979 -111 4 C-111 3.34 -111 2.68 -111 2 C-81.48651417 2 -81.48651417 2 -77.64624023 2.07592773 C-76.36987953 2.10111732 -76.36987953 2.10111732 -75.06773376 2.1268158 C-71.20892059 2.20622297 -67.35017183 2.28835467 -63.49145508 2.37231445 C-61.45373285 2.41580888 -59.41597074 2.45747244 -57.37817383 2.49731445 C-54.43820164 2.55497958 -51.49841305 2.6186498 -48.55859375 2.68359375 C-47.1897831 2.70866249 -47.1897831 2.70866249 -45.7933197 2.73423767 C-44.52168724 2.7641555 -44.52168724 2.7641555 -43.22436523 2.79467773 C-42.10661964 2.81799416 -42.10661964 2.81799416 -40.96629333 2.84178162 C-39 3 -39 3 -36 4 C-35.67 3.67 -35.34 3.34 -35 3 C-32.5 2.875 -32.5 2.875 -30 3 C-29.505 3.495 -29.505 3.495 -29 4 C-26.79845178 4.48988875 -24.58837057 4.94164534 -22.375 5.375 C-14.575 6.98088235 -14.575 6.98088235 -11 8.6875 C-7.75167522 10.10864209 -5.50596858 10.25653429 -2 10 C-1.34 6.7 -0.68 3.4 0 0 Z " fill="#838280" transform="translate(208,252)"/>
<path d="M0 0 C0.83660156 -0.00145523 1.67320313 -0.00291046 2.53515625 -0.00440979 C5.25395233 -0.00664997 7.9726227 -0.00038765 10.69140625 0.0078125 C11.61776886 0.00969574 12.54413147 0.01157898 13.49856567 0.01351929 C25.53812513 0.04219386 37.57976551 0.10801673 49.61624146 0.39727783 C50.99347959 0.42915731 52.37083489 0.45634078 53.7482605 0.47869873 C55.64498385 0.51150648 57.54130114 0.56572479 59.4375 0.62109375 C61.02389282 0.66036987 61.02389282 0.66036987 62.64233398 0.70043945 C65.25390625 1.1328125 65.25390625 1.1328125 67.08813477 2.4934082 C69.78765974 6.28970353 68.87243308 11.73770355 68.25390625 16.1328125 C65.10256341 20.95830622 60.63168052 22.57691381 55.25390625 24.1328125 C51.19052595 24.89488047 47.11579705 25.34268663 43.00390625 25.7578125 C41.21581543 25.94500854 41.21581543 25.94500854 39.39160156 26.13598633 C23.39688912 27.67441061 7.31350707 27.94450026 -8.74609375 28.1328125 C-9.79283264 28.15355331 -9.79283264 28.15355331 -10.86071777 28.17471313 C-14.30625113 28.21980835 -17.45485784 28.22989114 -20.74609375 27.1328125 C-20.49749984 23.36016562 -20.21842359 19.59038303 -19.93359375 15.8203125 C-19.82821289 14.2125293 -19.82821289 14.2125293 -19.72070312 12.57226562 C-19.64013672 11.54423828 -19.55957031 10.51621094 -19.4765625 9.45703125 C-19.37444458 8.0352356 -19.37444458 8.0352356 -19.27026367 6.5847168 C-18.64672577 3.66799992 -18.24672351 2.75827025 -15.74609375 1.1328125 C-10.51947212 0.00257842 -5.32113293 -0.0134126 0 0 Z " fill="#BAB8B6" transform="translate(117.74609375,152.8671875)"/>
<path d="M0 0 C2.12138162 12.18187323 3.72513834 24.41211763 5.1875 36.6875 C5.32303284 37.80557037 5.32303284 37.80557037 5.46130371 38.94622803 C5.72295136 41.1133065 5.97776902 43.28108055 6.23046875 45.44921875 C6.37895264 46.71080811 6.52743652 47.97239746 6.68041992 49.2722168 C7.01862177 53.21721601 7.05394013 57.04320408 7 61 C8.485 61.495 8.485 61.495 10 62 C9.73630615 63.30747192 9.73630615 63.30747192 9.46728516 64.64135742 C9.01196689 67.91398719 9.09967666 70.47674812 9.5234375 73.73828125 C9.6575 74.80626953 9.7915625 75.87425781 9.9296875 76.97460938 C10.15011719 78.62686523 10.15011719 78.62686523 10.375 80.3125 C10.65391707 82.49605912 10.93256749 84.67965232 11.2109375 86.86328125 C11.41734863 88.4248999 11.41734863 88.4248999 11.62792969 90.01806641 C11.96664506 92.73267898 12.22906866 95.44390114 12.4765625 98.16796875 C12.60799634 102.01126445 12.60799634 102.01126445 15 104 C14.67 104.33 14.34 104.66 14 105 C14.090916 107.70108504 14.23740766 110.36930311 14.4375 113.0625 C14.48970703 113.82111328 14.54191406 114.57972656 14.59570312 115.36132812 C14.72575835 117.24121722 14.86228038 119.12065685 15 121 C16.485 121.495 16.485 121.495 18 122 C18 124.64 18 127.28 18 130 C18.99 130 19.98 130 21 130 C20.67 131.32 20.34 132.64 20 134 C16.37 134 12.74 134 9 134 C8.80664062 132.94039062 8.61328125 131.88078125 8.4140625 130.7890625 C8.15144936 129.40096447 7.88840614 128.01294776 7.625 126.625 C7.49867188 125.92632812 7.37234375 125.22765625 7.2421875 124.5078125 C6.49856679 120.32740535 6.49856679 120.32740535 4 117 C4.12890625 114.05859375 4.12890625 114.05859375 4.5625 110.4375 C5.03658623 105.01307149 4.88315167 101.33967269 2.828125 96.3515625 C1.4329969 92.38992517 1.05958799 88.26478635 0.52734375 84.11328125 C0.09523451 81.02402537 0.09523451 81.02402537 -0.95678711 78.2902832 C-2.11555607 74.63553729 -2.71237684 71.02778823 -3.21875 67.2421875 C-3.37297676 66.13666283 -3.37297676 66.13666283 -3.53031921 65.00880432 C-3.85972672 62.631672 -4.18023223 60.2534466 -4.5 57.875 C-4.72426988 56.23834956 -4.94863543 54.60171223 -5.1730957 52.96508789 C-6.43368109 43.68846342 -7.56231139 34.41466289 -8.39794922 25.08886719 C-8.85804371 20.03345238 -9.62254317 15.11765693 -10.625 10.14453125 C-11.1031427 7.4101527 -11.14960867 4.76776039 -11 2 C-9.35440244 1.66550467 -7.70851502 1.33243501 -6.0625 1 C-5.14597656 0.814375 -4.22945312 0.62875 -3.28515625 0.4375 C-1 0 -1 0 0 0 Z " fill="#A9A39D" transform="translate(207,167)"/>
<path d="M0 0 C1.12178787 3.3653636 1.16771159 6.0203755 1.1875 9.5625 C1.20167969 10.71878906 1.21585938 11.87507812 1.23046875 13.06640625 C1 16 1 16 -1 18 C-3.3828125 18.4140625 -3.3828125 18.4140625 -6.125 18.625 C-7.03507812 18.69976562 -7.94515625 18.77453125 -8.8828125 18.8515625 C-9.58148438 18.90054688 -10.28015625 18.94953125 -11 19 C-10.89453857 19.66193359 -10.78907715 20.32386719 -10.68041992 21.00585938 C-8.14868578 36.97377997 -5.94373909 52.95108976 -4 69 C-3.48857637 73.2095589 -2.96665019 77.41763527 -2.4375 81.625 C-2.32269287 82.57914795 -2.20788574 83.5332959 -2.08959961 84.51635742 C-1.4867324 89.27288118 -0.53929619 93.44706062 1 98 C1.265625 101.10546875 1.265625 101.10546875 1.25 104.1875 C1.25773437 105.72470703 1.25773437 105.72470703 1.265625 107.29296875 C1 110 1 110 -1 113 C-2.32 113 -3.64 113 -5 113 C-7.95294407 103.54485893 -9.39835521 93.97449422 -10.84765625 84.20703125 C-11.10710943 82.48980617 -11.36708357 80.77265973 -11.62754822 79.05558777 C-12.17013154 75.46985195 -12.70849405 71.88351865 -13.2434082 68.29663086 C-13.92220503 63.74523583 -14.60836392 59.1949927 -15.29735661 54.64513111 C-15.9626206 50.24949833 -16.62396365 45.85327795 -17.28515625 41.45703125 C-17.46965678 40.23384154 -17.46965678 40.23384154 -17.6578846 38.98594093 C-18.01372007 36.62220627 -18.36707 34.2581188 -18.71899414 31.89379883 C-18.88607675 30.77662586 -18.88607675 30.77662586 -19.05653477 29.63688374 C-19.60882538 25.88491147 -20.11283131 22.13365456 -20.54269409 18.36557007 C-20.67079421 17.25607388 -20.67079421 17.25607388 -20.8014822 16.12416363 C-21.03024605 14.09918249 -21.24684966 12.07283814 -21.46263123 10.0464325 C-21.71732001 6.90033056 -21.71732001 6.90033056 -24 5 C-26.43176397 4.75498505 -28.75864884 4.62675079 -31.1953125 4.5859375 C-32.25647781 4.55688828 -32.25647781 4.55688828 -33.33908081 4.5272522 C-35.60093085 4.46742348 -37.8628317 4.42105899 -40.125 4.375 C-41.6575744 4.33682314 -43.19012728 4.29777158 -44.72265625 4.2578125 C-48.48159624 4.16171961 -52.24063668 4.07770151 -56 4 C-56 3.67 -56 3.34 -56 3 C-55.2879541 2.98018066 -54.5759082 2.96036133 -53.84228516 2.93994141 C-37.23815535 2.45931651 -20.72001337 1.59061843 -4.16943359 0.16772461 C-2 0 -2 0 0 0 Z " fill="#68635F" transform="translate(207,150)"/>
<path d="M0 0 C10.67519075 0.56885937 21.33961555 1.19447256 32 2 C32 2.33 32 2.66 32 3 C30.88625 3.12375 29.7725 3.2475 28.625 3.375 C24.96896323 3.6465813 24.96896323 3.6465813 23 6 C22.55555557 7.99470294 22.55555557 7.99470294 22.40234375 10.28125 C22.28342773 11.54388672 22.28342773 11.54388672 22.16210938 12.83203125 C22.08798828 13.71246094 22.01386719 14.59289062 21.9375 15.5 C21.78338083 17.23989083 21.62598449 18.97949542 21.46484375 20.71875 C21.399021 21.49154297 21.33319824 22.26433594 21.26538086 23.06054688 C21 25 21 25 20 27 C19.67235708 29.13244937 19.39142509 31.27214519 19.1328125 33.4140625 C18.97103516 34.72383057 18.80925781 36.03359863 18.64257812 37.38305664 C18.5582251 38.07561554 18.47387207 38.76817444 18.38696289 39.48171997 C17.94917705 43.06351607 17.49610517 46.64327358 17.0390625 50.22265625 C16.87615723 51.51695557 16.71325195 52.81125488 16.54541016 54.14477539 C15.81372076 59.31671242 14.83514366 64.41640768 13.79296875 69.53515625 C11.64003717 80.90770072 10.46702466 92.52381017 9 104 C9.99 104 10.98 104 12 104 C12.495 103.01 12.495 103.01 13 102 C13 102.66 13 103.32 13 104 C14.65 104 16.3 104 18 104 C16.57628203 107.56310166 15.03428998 108.9275463 11.6875 110.75 C10.92824219 111.17796875 10.16898438 111.6059375 9.38671875 112.046875 C6.72986427 113.10787744 4.83566267 113.25379425 2 113 C0.40115052 111.40115052 0.79059753 109.7852145 0.75 107.5625 C0.80163159 101.79451335 1.7131411 96.28421535 2.72607422 90.62817383 C3.85598543 84.18975075 4.66106865 77.74677526 5.375 71.25 C6.66062176 59.60362199 8.14725517 47.99007643 9.6875 36.375 C9.80204529 35.51056274 9.91659058 34.64612549 10.03460693 33.75549316 C10.68691964 28.83661725 11.34219143 23.91814383 12 19 C11.31292969 18.95101562 10.62585938 18.90203125 9.91796875 18.8515625 C9.01691406 18.77679688 8.11585937 18.70203125 7.1875 18.625 C6.29417969 18.55539063 5.40085937 18.48578125 4.48046875 18.4140625 C2 18 2 18 -1 16 C-1.328125 13.828125 -1.328125 13.828125 -1.25 11.25 C-1.23453125 10.40953125 -1.2190625 9.5690625 -1.203125 8.703125 C-0.98186782 5.75870251 -0.5264781 2.90412114 0 0 Z " fill="#615D59" transform="translate(77,151)"/>
<path d="M0 0 C0.33 0 0.66 0 1 0 C1.12375 1.03125 1.2475 2.0625 1.375 3.125 C1.85701955 6.84961649 1.85701955 6.84961649 2.9453125 9.671875 C4.25051596 13.79051703 4.88726645 17.85626182 5.5 22.125 C5.62890625 22.99954834 5.7578125 23.87409668 5.890625 24.77514648 C6.88113592 31.69448435 7.59011611 38.62345321 8.23266602 45.58227539 C8.76180668 51.11968135 9.51571403 56.57772624 10.4375 62.0625 C11.76620172 70.03641708 12.77772966 78.03027864 13.6875 86.0625 C13.81890381 87.19244385 13.95030762 88.3223877 14.08569336 89.48657227 C14.80593242 96.0219315 15.17507979 102.42570744 15 109 C13.35 109 11.7 109 10 109 C9.80664062 107.94039063 9.61328125 106.88078125 9.4140625 105.7890625 C9.15144936 104.40096447 8.88840614 103.01294776 8.625 101.625 C8.49867188 100.92632812 8.37234375 100.22765625 8.2421875 99.5078125 C7.49856679 95.32740535 7.49856679 95.32740535 5 92 C5.14933007 88.59255938 5.58506048 85.25521932 6.00390625 81.87109375 C5.99975052 77.75276548 5.14237582 75.0401218 3.75024414 71.23120117 C2.61623794 67.85870437 2.2414705 64.4610444 1.9375 60.9375 C1.86225098 60.13602539 1.78700195 59.33455078 1.70947266 58.50878906 C0.54324103 44.98050223 0.00763394 31.38948083 -0.6328125 17.828125 C-0.67020035 17.05785477 -0.7075882 16.28758453 -0.74610901 15.49397278 C-0.96727863 10.65751201 -1.11783501 5.84133558 -1 1 C-0.67 0.67 -0.34 0.34 0 0 Z " fill="#AFA9A3" transform="translate(206,192)"/>
<path d="M0 0 C1.2065625 0.0309375 1.2065625 0.0309375 2.4375 0.0625 C2.73767182 8.60072073 2.21303057 16.99502276 1.5 25.5 C1.41314941 26.54220703 1.32629883 27.58441406 1.23681641 28.65820312 C0.81401959 33.50043797 0.34767807 38.28201516 -0.5625 43.0625 C-1.2225 43.0625 -1.8825 43.0625 -2.5625 43.0625 C-2.53929688 43.69414062 -2.51609375 44.32578125 -2.4921875 44.9765625 C-2.35808506 51.62421226 -3.03083439 57.87955803 -4.05859375 64.44140625 C-4.56361184 68.07048973 -4.84413122 71.65581559 -5.0625 75.3125 C-5.36266633 80.0730326 -5.98084386 84.508985 -7.02734375 89.15234375 C-7.91373932 93.97252403 -8.33279295 98.85266501 -8.77709961 103.73144531 C-9.1831483 107.84263276 -9.75247 111.28406238 -11.5625 115.0625 C-12.2225 114.7325 -12.8825 114.4025 -13.5625 114.0625 C-13.4903125 113.34964844 -13.418125 112.63679688 -13.34375 111.90234375 C-12.92896014 107.62194281 -12.5625 103.42900206 -12.5625 99.125 C-12.5625 96.4197605 -12.20693672 94.63726062 -11.5625 92.0625 C-11.38661812 90.48507017 -11.24670775 88.90342562 -11.1328125 87.3203125 C-11.0256189 85.87410522 -11.0256189 85.87410522 -10.91625977 84.39868164 C-10.84076904 83.3389917 -10.76527832 82.27930176 -10.6875 81.1875 C-10.5120571 78.83461016 -10.33625344 76.48174721 -10.16015625 74.12890625 C-10.06492676 72.84258301 -9.96969727 71.55625977 -9.87158203 70.23095703 C-6.90114645 30.12708593 -6.90114645 30.12708593 -4.9375 12.25 C-4.8144751 11.11763916 -4.6914502 9.98527832 -4.56469727 8.81860352 C-3.56444556 0.0869377 -3.56444556 0.0869377 0 0 Z " fill="#B6B0AA" transform="translate(82.5625,169.9375)"/>
<path d="M0 0 C0.66 0 1.32 0 2 0 C4.20743152 11.26493205 6.09150152 22.5598261 7.78979492 33.91235352 C8.19186475 36.59158495 8.60261001 39.26940078 9.01367188 41.94726562 C9.2739612 43.67440032 9.53374558 45.40161121 9.79296875 47.12890625 C9.91480026 47.91753555 10.03663177 48.70616486 10.16215515 49.51869202 C10.8332943 54.06819724 11.11778396 58.40108926 11 63 C9.70590408 62.54857119 8.41478941 62.08858979 7.125 61.625 C6.40570313 61.36976563 5.68640625 61.11453125 4.9453125 60.8515625 C3 60 3 60 1 58 C0.269592 55.74885971 -0.38721828 53.47346304 -1 51.1875 C-2.33862495 46.1967544 -2.33862495 46.1967544 -4.078125 41.33984375 C-6.68651688 34.71939148 -6.11795851 28.04111334 -4.67578125 21.22265625 C-4.14045416 18.66979584 -3.66639641 16.12910118 -3.23046875 13.55859375 C-3.09930664 12.78588135 -2.96814453 12.01316895 -2.83300781 11.21704102 C-2.57168891 9.66961372 -2.31189479 8.12192807 -2.05371094 6.57397461 C-1.11071937 1.11071937 -1.11071937 1.11071937 0 0 Z " fill="#9E9C9A" transform="translate(189,196)"/>
<path d="M0 0 C1.32 0 2.64 0 4 0 C3.50994689 10.46802978 2.4876925 20.7433248 0.95889282 31.10913086 C0.38164421 35.02646518 -0.17476376 38.94674748 -0.73046875 42.8671875 C-0.89634239 44.03474579 -0.89634239 44.03474579 -1.06556702 45.22589111 C-2.20328628 53.30960473 -3.14363252 61.41159881 -4.01123047 69.52880859 C-4.55181627 74.49865594 -5.21329027 79.40909791 -6.06640625 84.3359375 C-6.74637371 88.29433097 -7.27404928 92.09674625 -7.25 96.125 C-7.25515625 97.01445312 -7.2603125 97.90390625 -7.265625 98.8203125 C-7.20175376 101.20916364 -7.20175376 101.20916364 -5 103 C-5.495 103.99 -5.495 103.99 -6 105 C-5.09636719 105.06058594 -4.19273438 105.12117188 -3.26171875 105.18359375 C-1.49248047 105.30927734 -1.49248047 105.30927734 0.3125 105.4375 C1.48425781 105.51871094 2.65601562 105.59992188 3.86328125 105.68359375 C7 106 7 106 10 107 C9.67 107.99 9.34 108.98 9 110 C8.505 109.01 8.505 109.01 8 108 C7.19175781 108.01160156 6.38351563 108.02320313 5.55078125 108.03515625 C4.48214844 108.04417969 3.41351563 108.05320312 2.3125 108.0625 C0.72888672 108.07990234 0.72888672 108.07990234 -0.88671875 108.09765625 C-4 108 -4 108 -9 107 C-9.66 113.93 -10.32 120.86 -11 128 C-6.3233856 123.90989426 -6.3233856 123.90989426 -5 119 C-2 120 -2 120 -0.75 122.375 C0 125 0 125 -1 128 C-1.66 128 -2.32 128 -3 128 C-3.33 128.99 -3.66 129.98 -4 131 C-6.97 131 -9.94 131 -13 131 C-12.93941406 129.86046875 -12.87882812 128.7209375 -12.81640625 127.546875 C-12.77652588 126.79204834 -12.73664551 126.03722168 -12.69555664 125.25952148 C-12.60577965 123.56627795 -12.51510128 121.873082 -12.42358398 120.17993164 C-12.18209977 115.6662893 -11.96022298 111.15330083 -11.78125 106.63671875 C-11.15829793 91.47963104 -11.15829793 91.47963104 -9.46875 84.3984375 C-8.6468697 80.19314997 -8.54091473 75.92290111 -8.28125 71.65234375 C-7.91117045 66.8464496 -7.19784972 62.11919403 -6.4765625 57.35546875 C-5.79902034 52.58490551 -5.37246458 47.80283269 -5 43 C-4.34 43 -3.68 43 -3 43 C-2.95101562 41.906875 -2.90203125 40.81375 -2.8515625 39.6875 C-2.22228758 26.42912793 -1.16611268 13.22103587 0 0 Z " fill="#928F8B" transform="translate(85,170)"/>
<path d="M0 0 C1.12178787 3.3653636 1.16771159 6.0203755 1.1875 9.5625 C1.20167969 10.71878906 1.21585938 11.87507812 1.23046875 13.06640625 C1 16 1 16 -1 18 C-5.11119081 19.29660633 -8.74423348 19.77232309 -13 19 C-16.47207069 15.78104381 -18.60223653 12.04442031 -21 8 C-22.09648235 6.24402232 -22.09648235 6.24402232 -24 5 C-26.50728032 4.6692937 -28.78137387 4.5117282 -31.29296875 4.48828125 C-31.99899734 4.47033005 -32.70502594 4.45237885 -33.43244934 4.43388367 C-35.68407241 4.37976822 -37.93548343 4.34588278 -40.1875 4.3125 C-41.71552431 4.27932781 -43.24352063 4.24483823 -44.77148438 4.20898438 C-48.51416989 4.12404175 -52.25679241 4.05723752 -56 4 C-56 3.67 -56 3.34 -56 3 C-55.2879541 2.98018066 -54.5759082 2.96036133 -53.84228516 2.93994141 C-37.23815535 2.45931651 -20.72001337 1.59061843 -4.16943359 0.16772461 C-2 0 -2 0 0 0 Z " fill="#4A4A4A" transform="translate(207,150)"/>
<path d="M0 0 C0.33 0 0.66 0 1 0 C3.0963728 12.01129323 4.54746016 23.81263394 5 36 C5.99 36.33 6.98 36.66 8 37 C7.8242041 37.87164795 7.6484082 38.7432959 7.46728516 39.64135742 C7.01196689 42.91398719 7.09967666 45.47674812 7.5234375 48.73828125 C7.6575 49.80626953 7.7915625 50.87425781 7.9296875 51.97460938 C8.07664063 53.07611328 8.22359375 54.17761719 8.375 55.3125 C8.65391707 57.49605912 8.93256749 59.67965232 9.2109375 61.86328125 C9.34854492 62.90436035 9.48615234 63.94543945 9.62792969 65.01806641 C9.96664506 67.73267898 10.22906866 70.44390114 10.4765625 73.16796875 C10.60799634 77.01126445 10.60799634 77.01126445 13 79 C12.505 79.495 12.505 79.495 12 80 C12.090916 82.70108504 12.23740766 85.36930311 12.4375 88.0625 C12.48970703 88.82111328 12.54191406 89.57972656 12.59570312 90.36132812 C12.72575835 92.24121722 12.86228038 94.12065685 13 96 C13.99 96.33 14.98 96.66 16 97 C16 99.64 16 102.28 16 105 C16.99 105 17.98 105 19 105 C18.67 106.32 18.34 107.64 18 109 C16.02 109 14.04 109 12 109 C11.86424561 107.72584229 11.72849121 106.45168457 11.58862305 105.13891602 C11.07445781 100.32789044 10.55257055 95.51772649 10.02856445 90.70776367 C9.80451253 88.64157834 9.58244545 86.57517662 9.36254883 84.50854492 C8.1478845 73.10619478 6.78567451 61.81838155 4.6105957 50.55566406 C3.82368956 45.97329655 3.56745577 41.43327886 3.31640625 36.796875 C2.92752973 32.13035675 2.18771987 27.55732037 1.4375 22.9375 C0.19127179 15.19418079 -0.38709632 7.85662162 0 0 Z " fill="#9B9691" transform="translate(209,192)"/>
<path d="M0 0 C1.16498399 3.49495198 0.5049038 5.16350334 -0.53857422 8.59667969 C-8.00673405 33.16933462 -9.11093317 57.6672005 -1 82 C-2.8984375 81.7421875 -2.8984375 81.7421875 -5 81 C-6.60788627 78.23443562 -7.22302234 75.08952065 -8 72 C-8.20753906 71.21625 -8.41507813 70.4325 -8.62890625 69.625 C-13.40707822 48.24017441 -9.42697747 23.32001428 -2 3 C-1.34 2.01 -0.68 1.02 0 0 Z " fill="#DEDEDD" transform="translate(61,54)"/>
<path d="M0 0 C0.33 0 0.66 0 1 0 C1.12375 1.03125 1.2475 2.0625 1.375 3.125 C1.94177663 6.63901509 2.85779303 9.64476703 4 13 C4.8355023 17.25531133 5.1773341 21.37983344 5.31640625 25.7109375 C5.37924805 27.57685547 5.37924805 27.57685547 5.44335938 29.48046875 C5.48267578 30.76566406 5.52199219 32.05085938 5.5625 33.375 C5.60568359 34.68339844 5.64886719 35.99179688 5.69335938 37.33984375 C5.79912429 40.55979797 5.90121579 43.77982531 6 47 C5.01 47.495 5.01 47.495 4 48 C1.6790451 43.12743629 0.57809703 39.31226383 0.26953125 33.8515625 C0.229384 33.1947348 0.18923676 32.5379071 0.14787292 31.86117554 C0.02409522 29.78293758 -0.0816989 27.70422167 -0.1875 25.625 C-0.26906576 24.23951715 -0.35173979 22.85409908 -0.43554688 21.46875 C-0.83560349 14.64732146 -1.21585997 7.83308449 -1 1 C-0.67 0.67 -0.34 0.34 0 0 Z " fill="#B4ADA8" transform="translate(206,192)"/>
<path d="M0 0 C0.66 0 1.32 0 2 0 C2.84865597 3.32962043 3.67606668 6.66418348 4.5 10 C4.73847656 10.93457031 4.97695313 11.86914062 5.22265625 12.83203125 C6.57692993 18.36520655 7.44642611 23.2999797 7 29 C5.1875 31.0625 5.1875 31.0625 3 32 C2.01 31.67 1.02 31.34 0 31 C-4.08212059 21.1169712 -1.81228132 10.17790135 0 0 Z " fill="#BDBCBC" transform="translate(59,82)"/>
<path d="M0 0 C0.33 0 0.66 0 1 0 C1.49044557 3.12659053 1.68056896 5.89328062 1 9 C-2.08439478 12.28701925 -5.55613332 13.84959722 -10 14.3125 C-10.99 14.1578125 -10.99 14.1578125 -12 14 C-12 14.66 -12 15.32 -12 16 C-24.07089323 17.44940133 -36.10977338 18.5392455 -48.25 19.1875 C-49.04562347 19.23146912 -49.84124695 19.27543823 -50.66098022 19.32073975 C-63.50461695 20.01575531 -76.1674284 20.05629622 -89 19 C-89 18.34 -89 17.68 -89 17 C-88.39865234 17.00523682 -87.79730469 17.01047363 -87.17773438 17.01586914 C-66.74041509 17.16841527 -46.47541789 16.68481619 -26.125 14.6875 C-24.38718262 14.52930786 -24.38718262 14.52930786 -22.61425781 14.36791992 C-15.70379994 13.63455085 -9.09894602 12.5190996 -3 9 C-0.87491756 5.81237635 -0.4979837 3.73487777 0 0 Z " fill="#9E9C98" transform="translate(186,163)"/>
<path d="M0 0 C1.32 0 2.64 0 4 0 C3.50989332 10.46917411 2.48734201 20.74549496 0.95834351 31.11242676 C0.38367318 35.01300882 -0.16969107 38.91660307 -0.72265625 42.8203125 C-0.83282578 43.59620728 -0.9429953 44.37210205 -1.0565033 45.17150879 C-2.59303386 56.08742597 -3.81653525 67.04079219 -5 78 C-5.33 78 -5.66 78 -6 78 C-6.02730408 76.43759968 -6.04653226 74.8750573 -6.0625 73.3125 C-6.07410156 72.44238281 -6.08570312 71.57226562 -6.09765625 70.67578125 C-6 68 -6 68 -5.5234375 65.73828125 C-4.7706453 61.80016685 -4.71350054 57.8755538 -4.5625 53.875 C-4.2338123 46.36643359 -3.64770602 38.93793753 -2.80541992 31.47094727 C-1.63619008 21.0022615 -0.83844467 10.49943016 0 0 Z " fill="#8F8983" transform="translate(85,170)"/>
<path d="M0 0 C0.66 0 1.32 0 2 0 C3.80192158 9.74968286 5.42680778 19.0411519 5 29 C2.03 28.67 -0.94 28.34 -4 28 C-3.72122863 24.26975219 -3.42472097 20.54111836 -3.125 16.8125 C-3.04636719 15.75740234 -2.96773437 14.70230469 -2.88671875 13.61523438 C-2.80292969 12.59365234 -2.71914062 11.57207031 -2.6328125 10.51953125 C-2.55949707 9.58214111 -2.48618164 8.64475098 -2.41064453 7.67895508 C-1.98091089 4.87546684 -1.15128856 2.58322931 0 0 Z " fill="#A9A6A2" transform="translate(190,202)"/>
<path d="M0 0 C2.32462357 3.48693536 2.78131986 6.14369183 3.5625 10.25 C3.81128906 11.53390625 4.06007812 12.8178125 4.31640625 14.140625 C7.30112597 30.99149976 10.05919671 55.48016564 1 71 C-1.171875 71.88671875 -1.171875 71.88671875 -3 72 C-2.73445312 71.39414063 -2.46890625 70.78828125 -2.1953125 70.1640625 C3.06040517 57.69611913 3.37610858 46.349089 3 33 C2.98066406 32.30084473 2.96132812 31.60168945 2.94140625 30.88134766 C2.67451864 22.89630594 1.65995869 15.50792444 -0.4765625 7.8046875 C-1.02983737 4.84012514 -0.79263484 2.88519083 0 0 Z " fill="#E6E5E5" transform="translate(227,64)"/>
<path d="M0 0 C0.33 0 0.66 0 1 0 C1.83288874 6.25307239 2.03863773 11.76817361 1 18 C2.58255197 13.67435795 3.45144652 9.571279 4 5 C4.33 5 4.66 5 5 5 C5.40820882 15.09182907 4.16108676 24.99599356 3 35 C0.69 35 -1.62 35 -4 35 C-3.48087749 23.18548771 -1.88331101 11.66705248 0 0 Z " fill="#A7A19B" transform="translate(69,266)"/>
<path d="M0 0 C0.33 0 0.66 0 1 0 C2.88667115 10.98551073 4.43115508 21.98644767 5.6875 33.0625 C5.81874268 34.19083252 5.94998535 35.31916504 6.08520508 36.48168945 C6.80552947 43.01871783 7.17512448 49.42402947 7 56 C5.35 56 3.7 56 2 56 C1.80664062 54.94039063 1.61328125 53.88078125 1.4140625 52.7890625 C1.15144936 51.40096447 0.88840614 50.01294776 0.625 48.625 C0.43550781 47.57699219 0.43550781 47.57699219 0.2421875 46.5078125 C-0.50143321 42.32740535 -0.50143321 42.32740535 -3 39 C-2.625 35.375 -2.625 35.375 -2 32 C-1.34 32 -0.68 32 0 32 C0.66 36.29 1.32 40.58 2 45 C2.99 45 3.98 45 5 45 C4.52776393 41.01997839 4.04605685 37.04116077 3.5625 33.0625 C3.42779297 31.92619141 3.29308594 30.78988281 3.15429688 29.61914062 C3.02216797 28.53955078 2.89003906 27.45996094 2.75390625 26.34765625 C2.57323608 24.84730835 2.57323608 24.84730835 2.38891602 23.31665039 C2.23781714 21.04439099 2.23781714 21.04439099 1 20 C0.84344973 18.51361008 0.74933057 17.02050873 0.68359375 15.52734375 C0.64169922 14.62822266 0.59980469 13.72910156 0.55664062 12.80273438 C0.51732422 11.85720703 0.47800781 10.91167969 0.4375 9.9375 C0.39431641 8.98810547 0.35113281 8.03871094 0.30664062 7.06054688 C0.20020724 4.70718647 0.09818992 2.35371646 0 0 Z " fill="#A49E9A" transform="translate(214,245)"/>
<path d="M0 0 C0.33 0 0.66 0 1 0 C1.20395435 8.70205207 0.67570351 17.26288822 -0.171875 25.91796875 C-0.37468389 27.99675984 -0.5668603 30.07633987 -0.7578125 32.15625 C-1.42794108 39.27703941 -2.29641865 46.32197457 -3.54052734 53.36914062 C-4.17216112 56.9857642 -4.65303666 60.60913998 -5.125 64.25 C-5.29257813 65.53390625 -5.46015625 66.8178125 -5.6328125 68.140625 C-5.75398438 69.08421875 -5.87515625 70.0278125 -6 71 C-6.33 71 -6.66 71 -7 71 C-7.37800727 60.77932055 -6.23632177 50.71124173 -5.1875 40.5625 C-5.09762817 39.6751416 -5.00775635 38.7877832 -4.91516113 37.87353516 C-3.6292173 25.19198284 -2.18208915 12.56354361 0 0 Z " fill="#86827E" transform="translate(71,230)"/>
<path d="M0 0 C0.33 0 0.66 0 1 0 C1.05386629 2.12472576 1.09273071 4.24983652 1.125 6.375 C1.14820313 7.55835938 1.17140625 8.74171875 1.1953125 9.9609375 C1 13 1 13 -1 15 C-3.3828125 15.4140625 -3.3828125 15.4140625 -6.125 15.625 C-7.03507813 15.69976562 -7.94515625 15.77453125 -8.8828125 15.8515625 C-9.93082031 15.92503906 -9.93082031 15.92503906 -11 16 C-11.02686553 14.02090602 -11.04633375 12.04171029 -11.0625 10.0625 C-11.07410156 8.96035156 -11.08570313 7.85820312 -11.09765625 6.72265625 C-11 4 -11 4 -10 3 C-3.47457627 2.76271186 -3.47457627 2.76271186 -1 4 C-0.67 2.68 -0.34 1.36 0 0 Z " fill="#6F6E70" transform="translate(207,153)"/>
<path d="M0 0 C1.65 0 3.3 0 5 0 C5 0.99 5 1.98 5 3 C11.59825904 5.07007088 11.59825904 5.07007088 18 3 C19.32 3 20.64 3 22 3 C22.33 5.64 22.66 8.28 23 11 C14.55666209 11.42691034 8.24096313 11.63421641 1 7 C1.66 5.35 2.32 3.7 3 2 C2.01 1.34 1.02 0.68 0 0 Z " fill="#8D8C8A" transform="translate(191,290)"/>
<path d="M0 0 C10.39669641 -0.1132812 20.63496744 0.08012389 31 1 C31 1.33 31 1.66 31 2 C30.030625 1.95875 29.06125 1.9175 28.0625 1.875 C22.03110868 2.62892392 18.54952661 8.56510394 15 13 C13.15876252 10.69231569 12.06436833 9.30038552 11.4375 6.375 C10.22710467 3.7908811 10.22710467 3.7908811 7.65234375 3.23828125 C5.10558756 2.73322833 2.57632444 2.31847553 0 2 C0 1.34 0 0.68 0 0 Z " fill="#3F3F3F" transform="translate(78,152)"/>
<path d="M0 0 C0.99 0.495 0.99 0.495 2 1 C2.6328125 3.72265625 2.6328125 3.72265625 3.125 7.0625 C3.29257813 8.16722656 3.46015625 9.27195313 3.6328125 10.41015625 C3.75398437 11.26480469 3.87515625 12.11945313 4 13 C4.66 13 5.32 13 6 13 C7.08834175 20.31658317 7.32457962 27.61276728 7.5625 35 C7.60568359 36.25167969 7.64886719 37.50335938 7.69335938 38.79296875 C7.79878017 41.86188523 7.90090342 44.93087389 8 48 C5.65086089 43.30172177 4.52565579 39.35863298 3.80859375 34.140625 C3.69902847 33.35862732 3.5894632 32.57662964 3.47657776 31.77093506 C3.2453972 30.11348574 3.01603082 28.45578253 2.78833008 26.79785156 C2.44070361 24.27326576 2.08501114 21.74990927 1.72851562 19.2265625 C1.50471703 17.61465147 1.28139453 16.00267425 1.05859375 14.390625 C0.95236191 13.64041077 0.84613007 12.89019653 0.73667908 12.11724854 C0.18422727 8.04646634 -0.10977623 4.10749437 0 0 Z " fill="#9B9590" transform="translate(200,200)"/>
<path d="M0 0 C0.33 0 0.66 0 1 0 C1.08040527 0.59538574 1.16081055 1.19077148 1.24365234 1.80419922 C1.61208984 4.49573761 1.99337827 7.18530069 2.375 9.875 C2.50132812 10.81214844 2.62765625 11.74929688 2.7578125 12.71484375 C2.88671875 13.61074219 3.015625 14.50664062 3.1484375 15.4296875 C3.32125244 16.67081299 3.32125244 16.67081299 3.49755859 17.93701172 C3.86131764 20.20778385 3.86131764 20.20778385 6 22 C5.67 22.33 5.34 22.66 5 23 C5.090916 25.70108504 5.23740766 28.36930311 5.4375 31.0625 C5.48970703 31.82111328 5.54191406 32.57972656 5.59570312 33.36132812 C5.72575835 35.24121722 5.86228038 37.12065685 6 39 C6.99 39.33 7.98 39.66 9 40 C9 42.64 9 45.28 9 48 C9.99 48 10.98 48 12 48 C11.67 49.32 11.34 50.64 11 52 C9.02 52 7.04 52 5 52 C4.28244831 45.72009602 3.57102163 39.43951948 2.86376953 33.15844727 C2.62265404 31.02352334 2.38015721 28.88875494 2.13623047 26.75415039 C1.78506577 23.67895095 1.43893692 20.60321921 1.09375 17.52734375 C0.9843811 16.57915268 0.87501221 15.63096161 0.7623291 14.65403748 C0.2151912 9.7326862 -0.11909929 4.95155283 0 0 Z " fill="#938F8A" transform="translate(216,249)"/>
<path d="M0 0 C0.33 0 0.66 0 1 0 C1.37404242 11.15893209 0.79215517 22.41866381 -3 33 C-3.34976758 34.32911682 -3.69096017 35.66082739 -4 37 C-4.66 37 -5.32 37 -6 37 C-5.66796517 28.49303872 -5.03086968 20.14395128 -3.5625 11.75 C-3.44028076 11.03593994 -3.31806152 10.32187988 -3.19213867 9.58618164 C-2.55018803 6.1019622 -1.82147384 3.05944524 0 0 Z " fill="#8F8F8F" transform="translate(92,218)"/>
<path d="M0 0 C0.33 0 0.66 0 1 0 C1.02917228 3.22914752 1.04685663 6.45826083 1.0625 9.6875 C1.07087891 10.59951172 1.07925781 11.51152344 1.08789062 12.45117188 C1.09111328 13.33740234 1.09433594 14.22363281 1.09765625 15.13671875 C1.10289307 15.94842529 1.10812988 16.76013184 1.11352539 17.59643555 C0.99265452 20.15551892 0.52160258 22.49407667 0 25 C-0.19160656 26.74092522 -0.35725405 28.48485788 -0.5 30.23046875 C-0.5825 31.19791016 -0.665 32.16535156 -0.75 33.16210938 C-0.91762848 35.19067596 -1.08428421 37.21932314 -1.25 39.24804688 C-1.3325 40.21162109 -1.415 41.17519531 -1.5 42.16796875 C-1.5721875 43.04735107 -1.644375 43.9267334 -1.71875 44.83276367 C-2 47 -2 47 -3 49 C-3.22467831 50.53668865 -3.40796805 52.07968054 -3.5625 53.625 C-3.64628906 54.44226563 -3.73007813 55.25953125 -3.81640625 56.1015625 C-3.87699219 56.72804688 -3.93757813 57.35453125 -4 58 C-4.66 58 -5.32 58 -6 58 C-6.15348878 53.24184797 -6.10374354 48.9633878 -5.0625 44.3125 C-3.91163287 39.10542983 -3.60437948 33.9666697 -3.28125 28.65234375 C-2.91117045 23.8464496 -2.19784972 19.11919403 -1.4765625 14.35546875 C-0.79902034 9.58490551 -0.37246458 4.80283269 0 0 Z " fill="#A39D97" transform="translate(80,213)"/>
<path d="M0 0 C0.99 1.485 0.99 1.485 2 3 C4.45809998 3.2500773 4.45809998 3.2500773 7 3 C7.99 3 8.98 3 10 3 C9.67 3.33 9.34 3.66 9 4 C8.92755947 6.01964199 8.91622812 8.04167124 8.9375 10.0625 C8.94652344 11.16722656 8.95554687 12.27195312 8.96484375 13.41015625 C8.97644531 14.26480469 8.98804687 15.11945313 9 16 C6.69 16 4.38 16 2 16 C1.855625 15.360625 1.71125 14.72125 1.5625 14.0625 C1.18992819 12.02454854 1.18992819 12.02454854 0 11 C-0.07226502 9.14712498 -0.0838122 7.29166122 -0.0625 5.4375 C-0.05347656 4.42558594 -0.04445313 3.41367187 -0.03515625 2.37109375 C-0.02355469 1.58863281 -0.01195313 0.80617188 0 0 Z " fill="#737372" transform="translate(77,260)"/>
<path d="M0 0 C2.31 0 4.62 0 7 0 C7.33 6.6 7.66 13.2 8 20 C7.34 20.33 6.68 20.66 6 21 C5.67 19.02 5.34 17.04 5 15 C4.34 15 3.68 15 3 15 C2.49363393 13.25183142 1.99515381 11.50137737 1.5 9.75 C1.2215625 8.77546875 0.943125 7.8009375 0.65625 6.796875 C0 4 0 4 0 0 Z " fill="#B3ACA7" transform="translate(198,169)"/>
<path d="M0 0 C0.33 0 0.66 0 1 0 C1.33 1.65 1.66 3.3 2 5 C3.32 3.35 4.64 1.7 6 0 C10.75 0.75 10.75 0.75 13 3 C12.58624767 6.10314249 11.43874441 8.12251118 10 11 C6.7 10.67 3.4 10.34 0 10 C0 6.7 0 3.4 0 0 Z " fill="#6E6E70" transform="translate(76,157)"/>
<path d="M0 0 C0.66 0 1.32 0 2 0 C2.33 1.98 2.66 3.96 3 6 C2.01 6.495 2.01 6.495 1 7 C0.52425562 9.54024004 0.15992453 12.00051464 -0.125 14.5625 C-0.21136719 15.27341797 -0.29773438 15.98433594 -0.38671875 16.71679688 C-0.59934783 18.47689312 -0.80072697 20.23834164 -1 22 C-1.66 22 -2.32 22 -3 22 C-3 28.6 -3 35.2 -3 42 C-6.62683913 36.5597413 -6.40411944 30.23706864 -5.25 23.9375 C-5.06050781 23.04160156 -4.87101563 22.14570313 -4.67578125 21.22265625 C-4.14045416 18.66979584 -3.66639641 16.12910118 -3.23046875 13.55859375 C-3.09930664 12.78588135 -2.96814453 12.01316895 -2.83300781 11.21704102 C-2.57168891 9.66961372 -2.31189479 8.12192807 -2.05371094 6.57397461 C-1.11071937 1.11071937 -1.11071937 1.11071937 0 0 Z " fill="#918F8D" transform="translate(189,196)"/>
<path d="M0 0 C2.31 0.33 4.62 0.66 7 1 C7 1.33 7 1.66 7 2 C5.35 2.33 3.7 2.66 2 3 C1.88930176 3.9787207 1.77860352 4.95744141 1.66455078 5.96582031 C1.25095994 9.60458246 0.82741103 13.24212856 0.40087891 16.87939453 C0.21782949 18.45232361 0.03746452 20.02556755 -0.14013672 21.59912109 C-0.39622334 23.86384244 -0.66201496 26.12724743 -0.9296875 28.390625 C-1.00686005 29.09181458 -1.08403259 29.79300415 -1.1635437 30.51544189 C-1.59105833 34.04748732 -2.12918711 36.94365366 -4 40 C-4.679619 26.88587045 -3.40471032 12.70296504 0 0 Z " fill="#95918E" transform="translate(78,168)"/>
<path d="M0 0 C0.86963087 2.99706695 1.11763099 5.64956526 1.09765625 8.765625 C1.09443359 9.65507813 1.09121094 10.54453125 1.08789062 11.4609375 C1.07951172 12.38132812 1.07113281 13.30171875 1.0625 14.25 C1.05798828 15.18585938 1.05347656 16.12171875 1.04882812 17.0859375 C1.03706918 19.39069041 1.02063426 21.69531227 1 24 C3.31 24 5.62 24 8 24 C6 26 6 26 2.4375 26.1875 C-1 26 -1 26 -2 25 C-2.38186298 21.74404906 -2.47029887 18.4612489 -2.625 15.1875 C-2.6765625 14.27162109 -2.728125 13.35574219 -2.78125 12.41210938 C-2.82507813 11.52716797 -2.86890625 10.64222656 -2.9140625 9.73046875 C-2.9548291 8.91989014 -2.9955957 8.10931152 -3.03759766 7.27416992 C-2.99973462 4.98394815 -2.76955866 3.15696981 -2 1 C-1.34 0.67 -0.68 0.34 0 0 Z " fill="#A9A9A7" transform="translate(77,87)"/>
<path d="M0 0 C6.39697265 -0.47190782 10.86381733 -0.15050461 16.40625 3.22265625 C16.9321875 3.47917969 17.458125 3.73570312 18 4 C18.66 3.67 19.32 3.34 20 3 C20.33 4.98 20.66 6.96 21 9 C14 6.66666667 7 4.33333333 0 2 C0 1.34 0 0.68 0 0 Z " fill="#7B7976" transform="translate(181,254)"/>
<path d="M0 0 C2.29448087 3.4417213 2.77565733 6.01293797 3.5625 10.0625 C3.69180908 10.72773682 3.82111816 11.39297363 3.9543457 12.07836914 C4.95148281 17.36517348 5.63389148 22.63461657 6 28 C5.67 28 5.34 28 5 28 C4.67 29.65 4.34 31.3 4 33 C3.67 33 3.34 33 3 33 C2.96261719 32.06800781 2.92523438 31.13601562 2.88671875 30.17578125 C2.48645758 22.41385381 1.61291734 15.33831664 -0.4765625 7.8046875 C-1.02983737 4.84012514 -0.79263484 2.88519083 0 0 Z " fill="#E0DFDF" transform="translate(227,64)"/>
<path d="M0 0 C0.33 0.99 0.66 1.98 1 3 C1.99 3 2.98 3 4 3 C4.33 2.34 4.66 1.68 5 1 C5 1.66 5 2.32 5 3 C6.65 3 8.3 3 10 3 C8.53403275 6.9429464 6.62691725 8.01834588 2.875 9.75 C1.50988281 10.39195312 1.50988281 10.39195312 0.1171875 11.046875 C-0.58148438 11.36140625 -1.28015625 11.6759375 -2 12 C-2 11.01 -2 10.02 -2 9 C-1.34 9 -0.68 9 0 9 C0 6.03 0 3.06 0 0 Z " fill="#686867" transform="translate(85,252)"/>
<path d="M0 0 C16.83 0.33 33.66 0.66 51 1 C49.68 1.99 48.36 2.98 47 4 C46.01 3.67 45.02 3.34 44 3 C42.5735686 2.88677175 41.1427751 2.82404524 39.7121582 2.79467773 C38.85149246 2.77473251 37.99082672 2.75478729 37.1040802 2.73423767 C35.71644722 2.70916893 35.71644722 2.70916893 34.30078125 2.68359375 C33.35059616 2.66281265 32.40041107 2.64203156 31.4214325 2.62062073 C28.38519544 2.55521948 25.34887169 2.49628396 22.3125 2.4375 C20.25454831 2.39430583 18.19660541 2.35069124 16.13867188 2.30664062 C11.09253684 2.19954769 6.04631457 2.09825354 1 2 C0.67 1.34 0.34 0.68 0 0 Z " fill="#717170" transform="translate(125,253)"/>
<path d="M0 0 C0 0.33 0 0.66 0 1 C-1.98 1.33 -3.96 1.66 -6 2 C-6.33 5.96 -6.66 9.92 -7 14 C-7.66 14 -8.32 14 -9 14 C-10.2890625 12.25 -10.2890625 12.25 -11.625 10 C-12.07101563 9.2575 -12.51703125 8.515 -12.9765625 7.75 C-13.31429687 7.1725 -13.65203125 6.595 -14 6 C-13.01 6 -12.02 6 -11 6 C-11 4.68 -11 3.36 -11 2 C-7.36576791 -0.32590854 -4.22911669 -0.16265833 0 0 Z " fill="#575656" transform="translate(203,155)"/>
<path d="M0 0 C0.33 0 0.66 0 1 0 C1.13425509 8.31262781 0.75613601 16.47337607 0 24.75 C-0.09539062 25.84054688 -0.19078125 26.93109375 -0.2890625 28.0546875 C-0.52142068 30.70357074 -0.75844982 33.35194196 -1 36 C-1.33 36 -1.66 36 -2 36 C-3.44717477 23.51593812 -2.2343759 12.32062643 0 0 Z " fill="#8F8C89" transform="translate(71,230)"/>
<path d="M0 0 C0.33 2.64 0.66 5.28 1 8 C-3.87362847 7.54663921 -6.39042389 6.2910841 -10 3 C-6.27034861 0.96564469 -4.33094958 0 0 0 Z " fill="#ABAAA6" transform="translate(213,293)"/>
<path d="M0 0 C0.33 0 0.66 0 1 0 C0.67 5.28 0.34 10.56 0 16 C-0.66 16 -1.32 16 -2 16 C-2 16.99 -2 17.98 -2 19 C-3.65 18.67 -5.3 18.34 -7 18 C-7 17.34 -7 16.68 -7 16 C-5.68 16 -4.36 16 -3 16 C-3.02320312 15.30132812 -3.04640625 14.60265625 -3.0703125 13.8828125 C-3.08835937 12.97273438 -3.10640625 12.06265625 -3.125 11.125 C-3.14820312 10.22007812 -3.17140625 9.31515625 -3.1953125 8.3828125 C-3 6 -3 6 -1 4 C-0.3574765 1.93125966 -0.3574765 1.93125966 0 0 Z " fill="#4A4846" transform="translate(85,245)"/>
<path d="M0 0 C2.46278801 2.46278801 2.99771255 4.70676982 4 8 C4.33 8 4.66 8 5 8 C5 13.28 5 18.56 5 24 C4.34 23.67 3.68 23.34 3 23 C2.73423579 21.03998898 2.47713049 19.07798358 2.28515625 17.109375 C2.05092044 14.81767625 2.05092044 14.81767625 0.9375 12.0625 C-0.30816308 7.99333393 -0.16884609 4.22115229 0 0 Z " fill="#9E9893" transform="translate(199,186)"/>
<path d="M0 0 C2.67639505 4.99593742 3.61294682 9.27916303 3 15 C0.6875 17.5 0.6875 17.5 -2 19 C-2.99 18.67 -3.98 18.34 -5 18 C-4.34386719 17.64035156 -3.68773437 17.28070313 -3.01171875 16.91015625 C-0.68014548 15.10501708 -0.68014548 15.10501708 -0.64453125 11.93359375 C-0.69996094 10.77988281 -0.75539063 9.62617187 -0.8125 8.4375 C-1.07209063 2.14418126 -1.07209063 2.14418126 0 0 Z " fill="#DCDCDB" transform="translate(66,96)"/>
<path d="M0 0 C0.33 0 0.66 0 1 0 C3.39107538 9.75979825 4.59307576 18.98124457 5 29 C2.66983298 24.33966595 1.56916934 20.50154664 0.9375 15.3125 C0.84662109 14.61705078 0.75574219 13.92160156 0.66210938 13.20507812 C0.11100854 8.76726615 -0.08790301 4.47133321 0 0 Z " fill="#837D78" transform="translate(203,219)"/>
<path d="M0 0 C0.66 0.33 1.32 0.66 2 1 C1.525625 2.19625 1.05125 3.3925 0.5625 4.625 C-1.57734901 10.93351712 -1.7273652 17.39095639 -2 24 C-2.99 24 -3.98 24 -5 24 C-5.56531509 15.80293114 -3.64821217 8.74256411 -1 1 C-0.67 0.67 -0.34 0.34 0 0 Z " fill="#DBDADA" transform="translate(221,86)"/>
<path d="M0 0 C3.3 0.33 6.6 0.66 10 1 C10.125 3.875 10.125 3.875 10 7 C9.34 7.66 8.68 8.32 8 9 C5.95880212 7.38405168 3.95927063 5.7143618 2 4 C2 3.34 2 2.68 2 2 C1.34 2 0.68 2 0 2 C0 1.34 0 0.68 0 0 Z " fill="#A7A7A5" transform="translate(54,291)"/>
<path d="M0 0 C0.33 0 0.66 0 1 0 C0.67 5.94 0.34 11.88 0 18 C-1.32 18.33 -2.64 18.66 -4 19 C-3.71815415 16.39442509 -3.42497289 13.79099602 -3.125 11.1875 C-3.04636719 10.44951172 -2.96773438 9.71152344 -2.88671875 8.95117188 C-2.45539714 5.28493819 -2.0803217 3.12048255 0 0 Z " fill="#5A5754" transform="translate(87,231)"/>
<path d="M0 0 C2.67253879 4.00880819 2.9746616 7.73557579 3.6875 12.4375 C3.82994141 13.29666016 3.97238281 14.15582031 4.11914062 15.04101562 C4.24869141 15.87181641 4.37824219 16.70261719 4.51171875 17.55859375 C4.62990967 18.31454834 4.74810059 19.07050293 4.86987305 19.84936523 C5.00751131 22.12414096 4.66750704 23.83282918 4 26 C0.43998234 17.48691428 0.30301337 9.10084996 0 0 Z " fill="#A59F9A" transform="translate(208,244)"/>
<path d="M0 0 C0.33 0 0.66 0 1 0 C1.05386629 2.12472576 1.09273071 4.24983652 1.125 6.375 C1.14820313 7.55835938 1.17140625 8.74171875 1.1953125 9.9609375 C1 13 1 13 -1 15 C-3.3828125 15.4140625 -3.3828125 15.4140625 -6.125 15.625 C-7.03507813 15.69976562 -7.94515625 15.77453125 -8.8828125 15.8515625 C-9.93082031 15.92503906 -9.93082031 15.92503906 -11 16 C-10.67 15.01 -10.34 14.02 -10 13 C-7.69 13 -5.38 13 -3 13 C-2.01 8.71 -1.02 4.42 0 0 Z " fill="#676665" transform="translate(207,153)"/>
<path d="M0 0 C-0.33 0.66 -0.66 1.32 -1 2 C-7.93 2 -14.86 2 -22 2 C-22.33 1.34 -22.66 0.68 -23 0 C-15.16992004 -0.79773542 -7.80363479 -1.14500285 0 0 Z " fill="#747371" transform="translate(182,229)"/>
<path d="M0 0 C2.71340928 3.20322242 3.93064936 6.26274969 5.1875 10.25 C5.70376953 11.86648437 5.70376953 11.86648437 6.23046875 13.515625 C6.61138672 14.74539062 6.61138672 14.74539062 7 16 C5.109375 15.76171875 5.109375 15.76171875 3 15 C0.41853928 10.42464984 -0.39960692 5.19488998 0 0 Z " fill="#E5E5E5" transform="translate(53,120)"/>
<path d="M0 0 C3.3 0 6.6 0 10 0 C10.33 0.99 10.66 1.98 11 3 C6.58937864 4.0257259 4.07369424 4.03684712 0 2 C0 1.34 0 0.68 0 0 Z " fill="#6E6D6C" transform="translate(181,254)"/>
<path d="M0 0 C0.33 0 0.66 0 1 0 C2.26305335 5.07476794 3.27036084 9.72796354 3 15 C2.34 15 1.68 15 1 15 C-1.39306591 5.19270308 -1.39306591 5.19270308 -1 1 C-0.67 0.67 -0.34 0.34 0 0 Z " fill="#93908B" transform="translate(213,286)"/>
<path d="M0 0 C2.3125 0.5 2.3125 0.5 4.3125 3.5 C3.74660156 3.62117188 3.18070313 3.74234375 2.59765625 3.8671875 C1.49744141 4.11855469 1.49744141 4.11855469 0.375 4.375 C-0.72134766 4.61863281 -0.72134766 4.61863281 -1.83984375 4.8671875 C-3.89450294 5.32961523 -3.89450294 5.32961523 -4.6875 7.5 C-5.6775 7.5 -6.6675 7.5 -7.6875 7.5 C-7.6875 5.5 -7.6875 5.5 -5.5 2.875 C-2.6875 0.5 -2.6875 0.5 0 0 Z " fill="#999793" transform="translate(92.6875,289.5)"/>
<path d="M0 0 C0.99 0.495 0.99 0.495 2 1 C2.33 1.99 2.66 2.98 3 4 C5.97 4.495 5.97 4.495 9 5 C9.33 4.01 9.66 3.02 10 2 C10 4.31 10 6.62 10 9 C8.70590408 8.54857119 7.41478941 8.08858979 6.125 7.625 C5.40570313 7.36976563 4.68640625 7.11453125 3.9453125 6.8515625 C2 6 2 6 0 4 C0 2.68 0 1.36 0 0 Z " fill="#92918D" transform="translate(190,250)"/>
<path d="M0 0 C0.99 0.495 0.99 0.495 2 1 C3.09163808 7.00400944 3.11227478 12.91221201 3 19 C2.67 19 2.34 19 2 19 C1.66089006 16.95928485 1.32897296 14.91737379 1 12.875 C0.814375 11.73804688 0.62875 10.60109375 0.4375 9.4296875 C0.03043951 6.23862398 -0.07809902 3.21182209 0 0 Z " fill="#88827D" transform="translate(200,200)"/>
<path d="M0 0 C0.33 0 0.66 0 1 0 C1.49062345 3.12772449 1.69470128 5.8945816 1 9 C-1.32863625 11.37648494 -3.85976481 12.90280939 -7 14 C-7.66 13.67 -8.32 13.34 -9 13 C-7.576875 12.1028125 -7.576875 12.1028125 -6.125 11.1875 C-2.48414098 8.63889869 -1.23117653 7.17900028 -0.375 2.8125 C-0.25125 1.884375 -0.1275 0.95625 0 0 Z " fill="#989693" transform="translate(186,163)"/>
<path d="M0 0 C0.66 0 1.32 0 2 0 C2.6416966 5.69505736 3.12462322 11.26733196 3 17 C0.57520264 13.36280395 0.61337423 11.14296518 0.375 6.8125 C0.30023438 5.54019531 0.22546875 4.26789063 0.1484375 2.95703125 C0.09945312 1.98121094 0.05046875 1.00539062 0 0 Z " fill="#8F8984" transform="translate(196,169)"/>
<path d="M0 0 C3.3 0 6.6 0 10 0 C7 3 7 3 4.95703125 3.29296875 C2.97135417 3.1953125 0.98567708 3.09765625 -1 3 C-0.67 2.01 -0.34 1.02 0 0 Z " fill="#5A5A58" transform="translate(114,252)"/>
<path d="M0 0 C0.33 0 0.66 0 1 0 C1.71033431 5.52967941 2.30267176 10.49983036 1 16 C0.34 16 -0.32 16 -1 16 C-0.67 10.72 -0.34 5.44 0 0 Z " fill="#A6A19B" transform="translate(69,266)"/>
<path d="M0 0 C0.33 0 0.66 0 1 0 C0.67 3.96 0.34 7.92 0 12 C-0.66 12 -1.32 12 -2 12 C-2.05395478 10.37536158 -2.09277195 8.75021459 -2.125 7.125 C-2.14820312 6.22007812 -2.17140625 5.31515625 -2.1953125 4.3828125 C-2 2 -2 2 0 0 Z " fill="#959697" transform="translate(90,231)"/>
<path d="M0 0 C0.99 0.33 1.98 0.66 3 1 C2.34 4.96 1.68 8.92 1 13 C0.67 13 0.34 13 0 13 C0 8.71 0 4.42 0 0 Z " fill="#A9A39C" transform="translate(85,170)"/>
<path d="M0 0 C0.33 0 0.66 0 1 0 C1.04898438 0.62648438 1.09796875 1.25296875 1.1484375 1.8984375 C1.22320312 2.71570313 1.29796875 3.53296875 1.375 4.375 C1.44460937 5.18710937 1.51421875 5.99921875 1.5859375 6.8359375 C1.82892588 9.20334191 1.82892588 9.20334191 4 11 C3.67 11.99 3.34 12.98 3 14 C2.01 14 1.02 14 0 14 C0 9.38 0 4.76 0 0 Z " fill="#878583" transform="translate(76,262)"/>
<path d="M0 0 C0.66 0 1.32 0 2 0 C0.515 6.435 0.515 6.435 -1 13 C-1.33 13 -1.66 13 -2 13 C-2.16682272 8.07872966 -2.24828052 4.49656104 0 0 Z " fill="#A19F9B" transform="translate(190,202)"/>
<path d="M0 0 C0.33 0.66 0.66 1.32 1 2 C1.99 2 2.98 2 4 2 C3.67 3.32 3.34 4.64 3 6 C1.68 6 0.36 6 -1 6 C-1.042721 4.33388095 -1.04063832 2.66617115 -1 1 C-0.67 0.67 -0.34 0.34 0 0 Z " fill="#989591" transform="translate(224,295)"/>
<path d="M0 0 C0.66 0 1.32 0 2 0 C2.33 1.98 2.66 3.96 3 6 C2.01 6.495 2.01 6.495 1 7 C0.34 8.32 -0.32 9.64 -1 11 C-0.67 7.37 -0.34 3.74 0 0 Z " fill="#989592" transform="translate(189,196)"/>
<path d="M0 0 C0.33 0.66 0.66 1.32 1 2 C2.65 2 4.3 2 6 2 C6 2.66 6 3.32 6 4 C4.02 4.66 2.04 5.32 0 6 C-1.125 2.25 -1.125 2.25 0 0 Z " fill="#5B5B59" transform="translate(89,253)"/>
<path d="M0 0 C0.309375 0.639375 0.61875 1.27875 0.9375 1.9375 C1.8345163 3.93610821 1.8345163 3.93610821 3 5 C3.04080783 6.99958364 3.04254356 9.00045254 3 11 C2.34 11 1.68 11 1 11 C-0.28317892 7.15046324 -0.06643637 4.05261865 0 0 Z " fill="#A9A39E" transform="translate(207,233)"/>
<path d="M0 0 C0.66 0.66 1.32 1.32 2 2 C1 3 1 3 -1.06640625 3.09765625 C-1.89011719 3.08605469 -2.71382812 3.07445312 -3.5625 3.0625 C-4.38878906 3.05347656 -5.21507812 3.04445312 -6.06640625 3.03515625 C-6.70449219 3.02355469 -7.34257812 3.01195312 -8 3 C-7.67 2.34 -7.34 1.68 -7 1 C-3.5625 0.25 -3.5625 0.25 0 0 Z " fill="#727270" transform="translate(147,228)"/>
<path d="M0 0 C-1.32 1.32 -2.64 2.64 -4 4 C-5.32 3.34 -6.64 2.68 -8 2 C-7.67 1.34 -7.34 0.68 -7 0 C-2.52459016 -1.26229508 -2.52459016 -1.26229508 0 0 Z " fill="#8E8C88" transform="translate(209,264)"/>
</svg>
